<?xml version="1.0" encoding="UTF-8"?>
<svg width="463px" height="472px" viewBox="0 0 463 472" version="1.1" xmlns="http://www.w3.org/2000/svg" xmlns:xlink="http://www.w3.org/1999/xlink">
    <!-- Generator: Sketch 47.1 (45422) - http://www.bohemiancoding.com/sketch -->
    <title>Artboard Copy 2</title>
    <desc>Created with Sketch.</desc>
    <defs>
        <path d="M199.680686,204 L558.849545,204 L558.849545,204 C570.447525,204 579.849545,213.40202 579.849545,225 C579.849545,225.373193 579.839597,225.74632 579.819711,226.118982 L558.571307,624.322387 C558.087648,633.386355 557.012774,636.629934 555.122078,639.885939 C553.231383,643.141944 550.564347,645.670459 547.212222,647.384973 C543.860097,649.099487 540.563851,650 531.486988,650 L175.00311,650 L175.00311,650 C163.40513,650 154.00311,640.59798 154.00311,629 C154.00311,628.673469 154.010726,628.346983 154.025952,628.020808 L172.612915,229.833749 C173.037801,220.731447 174.100689,217.468868 175.984338,214.19205 C177.867986,210.915231 180.537712,208.367219 183.898797,206.638411 C187.259882,204.909603 190.568474,204 199.680686,204 Z" id="path-1"></path>
        <path d="M199.680686,204 L558.849545,204 L558.849545,204 C570.447525,204 579.849545,213.40202 579.849545,225 C579.849545,225.373193 579.839597,225.74632 579.819711,226.118982 L558.571307,624.322387 C558.087648,633.386355 557.012774,636.629934 555.122078,639.885939 C553.231383,643.141944 550.564347,645.670459 547.212222,647.384973 C543.860097,649.099487 540.563851,650 531.486988,650 L175.00311,650 L175.00311,650 C163.40513,650 154.00311,640.59798 154.00311,629 C154.00311,628.673469 154.010726,628.346983 154.025952,628.020808 L172.612915,229.833749 C173.037801,220.731447 174.100689,217.468868 175.984338,214.19205 C177.867986,210.915231 180.537712,208.367219 183.898797,206.638411 C187.259882,204.909603 190.568474,204 199.680686,204 Z" id="path-3"></path>
    </defs>
    <g id="Page-1" stroke="none" stroke-width="1" fill="none" fill-rule="evenodd">
        <g id="Artboard-Copy-2" transform="translate(-136.000000, -191.000000)">
            <mask id="mask-2" fill="white">
                <use xlink:href="#path-1"></use>
            </mask>
            <g id="Mask"></g>
            <mask id="mask-4" fill="white">
                <use xlink:href="#path-3"></use>
            </mask>
            <g id="Mask"></g>
            <rect id="Rectangle" fill="#FFFFFF" mask="url(#mask-4)" x="117" y="187" width="499.999981" height="80"></rect>
            <rect id="Rectangle-Copy" fill="#FFFFFF" mask="url(#mask-4)" x="117" y="287" width="499.999981" height="80"></rect>
            <rect id="Rectangle-Copy" fill="#FFFFFF" mask="url(#mask-4)" x="117" y="287" width="499.999981" height="80"></rect>
            <rect id="Rectangle-Copy-2" fill="#FFFFFF" mask="url(#mask-4)" x="117" y="387" width="499.999981" height="80"></rect>
            <rect id="Rectangle-Copy-3" fill="#FFFFFF" mask="url(#mask-4)" x="117" y="487" width="499.999981" height="80"></rect>
            <rect id="Rectangle-Copy-4" fill="#FFFFFF" mask="url(#mask-4)" x="117" y="587" width="499.999981" height="80"></rect>
        </g>
    </g>
</svg>